<svg width="9" height="15" viewBox="0 0 9 15" fill="none" xmlns="http://www.w3.org/2000/svg">
<path d="M3.52689 5.04725C3.62643 5.1476 3.74484 5.22725 3.87531 5.28161C4.00579 5.33597 4.14573 5.36395 4.28707 5.36395C4.42841 5.36395 4.56836 5.33597 4.69883 5.28161C4.8293 5.22725 4.94771 5.1476 5.04725 5.04725L8.25927 1.83523C8.46088 1.63362 8.57414 1.36018 8.57414 1.07505C8.57414 0.789932 8.46088 0.516487 8.25927 0.314876C8.05765 0.113264 7.78421 0 7.49909 0C7.21397 0 6.94052 0.113264 6.73891 0.314876L4.28707 2.77742L1.83523 0.314876C1.63362 0.113264 1.36018 -2.12432e-09 1.07505 0C0.789932 2.12432e-09 0.516487 0.113264 0.314876 0.314876C0.113264 0.516487 2.12432e-09 0.789932 0 1.07505C-2.12432e-09 1.36018 0.113264 1.63362 0.314876 1.83523L3.52689 5.04725ZM5.04725 9.95093C4.94771 9.85058 4.8293 9.77092 4.69883 9.71657C4.56836 9.66221 4.42841 9.63422 4.28707 9.63422C4.14573 9.63422 4.00579 9.66221 3.87531 9.71657C3.74484 9.77092 3.62643 9.85058 3.52689 9.95093L0.314876 13.1629C0.113264 13.3646 0 13.638 0 13.9231C0 14.2082 0.113264 14.4817 0.314876 14.6833C0.516487 14.8849 0.789932 14.9982 1.07505 14.9982C1.36018 14.9982 1.63362 14.8849 1.83523 14.6833L4.28707 12.2208L6.73891 14.6833C6.83844 14.7836 6.95686 14.8633 7.08733 14.9177C7.2178 14.972 7.35775 15 7.49909 15C7.64043 15 7.78037 14.972 7.91084 14.9177C8.04131 14.8633 8.15973 14.7836 8.25927 14.6833C8.35962 14.5838 8.43927 14.4653 8.49363 14.3349C8.54798 14.2044 8.57597 14.0645 8.57597 13.9231C8.57597 13.7818 8.54798 13.6418 8.49363 13.5114C8.43927 13.3809 8.35962 13.2625 8.25927 13.1629L5.04725 9.95093Z" fill="white"/>
</svg>
