<svg width="20" height="16" viewBox="0 0 20 16" fill="none" xmlns="http://www.w3.org/2000/svg">
<path d="M14.995 7H3.40501L5.70501 4.71C5.79825 4.61676 5.87221 4.50607 5.92267 4.38425C5.97313 4.26243 5.9991 4.13186 5.9991 4C5.9991 3.86814 5.97313 3.73757 5.92267 3.61575C5.87221 3.49393 5.79825 3.38324 5.70501 3.29C5.61178 3.19676 5.50108 3.1228 5.37926 3.07234C5.25744 3.02188 5.12687 2.99591 4.99501 2.99591C4.86315 2.99591 4.73259 3.02188 4.61076 3.07234C4.48894 3.1228 4.37825 3.19676 4.28501 3.29L0.285014 7.29C0.193973 7.3851 0.122608 7.49725 0.0750135 7.62C-0.0250045 7.86346 -0.0250045 8.13654 0.0750135 8.38C0.122608 8.50275 0.193973 8.6149 0.285014 8.71L4.28501 12.71C4.37798 12.8037 4.48858 12.8781 4.61044 12.9289C4.7323 12.9797 4.863 13.0058 4.99501 13.0058C5.12703 13.0058 5.25773 12.9797 5.37959 12.9289C5.50145 12.8781 5.61205 12.8037 5.70501 12.71C5.79874 12.617 5.87314 12.5064 5.9239 12.3846C5.97467 12.2627 6.00081 12.132 6.00081 12C6.00081 11.868 5.97467 11.7373 5.9239 11.6154C5.87314 11.4936 5.79874 11.383 5.70501 11.29L3.40501 9H14.995C15.2602 9 15.5146 8.89464 15.7021 8.70711C15.8897 8.51957 15.995 8.26522 15.995 8C15.995 7.73478 15.8897 7.48043 15.7021 7.29289C15.5146 7.10536 15.2602 7 14.995 7ZM18.995 0C18.7298 0 18.4754 0.105357 18.2879 0.292893C18.1004 0.48043 17.995 0.734784 17.995 1V15C17.995 15.2652 18.1004 15.5196 18.2879 15.7071C18.4754 15.8946 18.7298 16 18.995 16C19.2602 16 19.5146 15.8946 19.7021 15.7071C19.8897 15.5196 19.995 15.2652 19.995 15V1C19.995 0.734784 19.8897 0.48043 19.7021 0.292893C19.5146 0.105357 19.2602 0 18.995 0Z" fill="white"/>
</svg>
